<svg width="159" height="119" viewBox="0 0 159 119" fill="none" xmlns="http://www.w3.org/2000/svg">
<path d="M69.7983 4.41953C68.8763 -7.47794 60.9708 10.3933 57.1334 20.8161L71.2733 21.0651C71.1658 20.4738 70.7204 16.317 69.7983 4.41953Z" fill="#30475E"/>
<path d="M95.3345 4.41953C96.2566 -7.47794 104.162 10.3933 107.999 20.8161L93.8595 21.0651C93.967 20.4738 94.4124 16.317 95.3345 4.41953Z" fill="#30475E"/>
<rect x="26.1836" y="18.9998" width="109" height="74" rx="12" fill="#DBDBDB"/>
<path d="M88.1836 54.9998C88.1836 47.8201 94.0039 41.9998 101.184 41.9998H122.184C129.363 41.9998 135.184 47.8201 135.184 54.9998V81.9998C135.184 89.1795 129.363 94.9998 122.184 94.9998H101.184C94.0039 94.9998 88.1836 89.1795 88.1836 81.9998V54.9998Z" fill="#DBDBDB"/>
<path d="M46.1836 80.9998C46.1836 73.8201 52.0039 67.9998 59.1836 67.9998H103.184C110.363 67.9998 116.184 73.8201 116.184 80.9998V106C116.184 113.179 110.363 119 103.184 119H59.1836C52.0039 119 46.1836 113.179 46.1836 106V80.9998Z" fill="#F05454"/>
<path d="M46.1836 80.9998C46.1836 73.8201 52.0039 67.9998 59.1836 67.9998H103.184C110.363 67.9998 116.184 73.8201 116.184 80.9998V106C116.184 113.179 110.363 119 103.184 119H59.1836C52.0039 119 46.1836 113.179 46.1836 106V80.9998Z" fill="#F05454"/>
<path d="M46.1836 80.9998C46.1836 73.8201 52.0039 67.9998 59.1836 67.9998H103.184C110.363 67.9998 116.184 73.8201 116.184 80.9998V106C116.184 113.179 110.363 119 103.184 119H59.1836C52.0039 119 46.1836 113.179 46.1836 106V80.9998Z" fill="#F05454"/>
<path d="M46.1836 80.9998C46.1836 73.8201 52.0039 67.9998 59.1836 67.9998H103.184C110.363 67.9998 116.184 73.8201 116.184 80.9998V106C116.184 113.179 110.363 119 103.184 119H59.1836C52.0039 119 46.1836 113.179 46.1836 106V80.9998Z" fill="#F05454"/>
<circle cx="48.6836" cy="56.4998" r="5.5" fill="#121212"/>
<circle cx="110.5" cy="56.4998" r="5.5" fill="#121212"/>
<circle cx="93.6836" cy="93.4998" r="5.5" fill="#323232"/>
<circle cx="69.6836" cy="93.4998" r="5.5" fill="#323232"/>
<path d="M34.1826 23.7405C29.3537 28.5037 29.7205 38.1695 29.374 38.7268L28.1431 39.6144C28.5534 39.3186 10.8971 41.6774 5.07244 23.7405C-0.75218 5.80363 24.3555 13.7885 34.1826 23.7405Z" fill="#DBDBDB"/>
<path d="M34.1826 23.7405C29.3537 28.5037 29.7205 38.1695 29.374 38.7268L28.1431 39.6144C28.5534 39.3186 10.8971 41.6774 5.07244 23.7405C-0.75218 5.80363 24.3555 13.7885 34.1826 23.7405Z" fill="#DBDBDB"/>
<path d="M134.511 37.7423C132.932 31.1458 124.47 26.4597 124.172 25.8749L124.05 24.3623C124.091 24.8665 131.205 8.53573 149.569 12.8294C167.932 17.1231 148.111 34.4801 134.511 37.7423Z" fill="#DBDBDB"/>
<path d="M134.511 37.7423C132.932 31.1458 124.47 26.4597 124.172 25.8749L124.05 24.3623C124.091 24.8665 131.205 8.53573 149.569 12.8294C167.932 17.1231 148.111 34.4801 134.511 37.7423Z" fill="#DBDBDB"/>
</svg>
